<mxfile host="Electron" agent="Mozilla/5.0 (Windows NT 10.0; Win64; x64) AppleWebKit/537.36 (KHTML, like Gecko) draw.io/26.0.4 Chrome/128.0.6613.186 Electron/32.2.5 Safari/537.36" version="26.0.4">
  <diagram name="Page-1" id="0783ab3e-0a74-02c8-0abd-f7b4e66b4bec">
    <mxGraphModel dx="1195" dy="803" grid="1" gridSize="10" guides="1" tooltips="1" connect="1" arrows="1" fold="1" page="1" pageScale="1" pageWidth="850" pageHeight="1100" background="none" math="0" shadow="0">
      <root>
        <mxCell id="0" />
        <mxCell id="1" parent="0" />
        <mxCell id="1c1d494c118603dd-1" value="Menu Options Pool" style="swimlane;html=1;childLayout=stackLayout;startSize=20;rounded=0;shadow=0;comic=0;labelBackgroundColor=none;strokeWidth=1;fontFamily=Verdana;fontSize=12;align=center;" parent="1" vertex="1">
          <mxGeometry x="44" y="20" width="750" height="990" as="geometry" />
        </mxCell>
        <mxCell id="1c1d494c118603dd-2" value="Reset Game" style="swimlane;html=1;startSize=20;" parent="1c1d494c118603dd-1" vertex="1">
          <mxGeometry y="20" width="250" height="970" as="geometry" />
        </mxCell>
        <mxCell id="1c1d494c118603dd-6" value="Set Board to blanks" style="rounded=1;whiteSpace=wrap;html=1;shadow=0;comic=0;labelBackgroundColor=none;strokeWidth=1;fontFamily=Verdana;fontSize=12;align=center;arcSize=50;" parent="1c1d494c118603dd-2" vertex="1">
          <mxGeometry x="80" y="130" width="100" height="30" as="geometry" />
        </mxCell>
        <mxCell id="60571a20871a0731-4" value="" style="ellipse;whiteSpace=wrap;html=1;rounded=0;shadow=0;comic=0;labelBackgroundColor=none;strokeWidth=1;fillColor=#000000;fontFamily=Verdana;fontSize=12;align=center;" parent="1c1d494c118603dd-2" vertex="1">
          <mxGeometry x="110" y="30" width="40" height="40" as="geometry" />
        </mxCell>
        <mxCell id="UkSORgVNk2TvawBsNUPi-14" value="" style="endArrow=classic;html=1;rounded=0;" edge="1" parent="1c1d494c118603dd-2" source="60571a20871a0731-4" target="1c1d494c118603dd-6">
          <mxGeometry width="50" height="50" relative="1" as="geometry">
            <mxPoint x="130" y="100" as="sourcePoint" />
            <mxPoint x="180" y="50" as="targetPoint" />
          </mxGeometry>
        </mxCell>
        <mxCell id="UkSORgVNk2TvawBsNUPi-9" value="&lt;div&gt;&lt;br&gt;&lt;/div&gt;" style="shape=mxgraph.bpmn.shape;html=1;verticalLabelPosition=bottom;labelBackgroundColor=#ffffff;verticalAlign=top;perimeter=ellipsePerimeter;outline=end;symbol=terminate;rounded=0;shadow=0;comic=0;strokeWidth=1;fontFamily=Verdana;fontSize=12;align=center;" vertex="1" parent="1c1d494c118603dd-2">
          <mxGeometry x="109" y="380" width="40" height="40" as="geometry" />
        </mxCell>
        <mxCell id="1c1d494c118603dd-4" value="Help" style="swimlane;html=1;startSize=20;" parent="1c1d494c118603dd-1" vertex="1">
          <mxGeometry x="250" y="20" width="250" height="970" as="geometry" />
        </mxCell>
        <mxCell id="60571a20871a0731-8" value="Show Help" style="rounded=1;whiteSpace=wrap;html=1;shadow=0;comic=0;labelBackgroundColor=none;strokeWidth=1;fontFamily=Verdana;fontSize=12;align=center;arcSize=50;" parent="1c1d494c118603dd-4" vertex="1">
          <mxGeometry x="110" y="110" width="100" height="30" as="geometry" />
        </mxCell>
        <mxCell id="1c1d494c118603dd-5" value="Pause" style="rounded=1;whiteSpace=wrap;html=1;shadow=0;comic=0;labelBackgroundColor=none;strokeWidth=1;fontFamily=Verdana;fontSize=12;align=center;arcSize=50;" parent="1c1d494c118603dd-4" vertex="1">
          <mxGeometry x="110" y="208" width="100" height="30" as="geometry" />
        </mxCell>
        <mxCell id="1c1d494c118603dd-37" style="edgeStyle=none;rounded=0;html=1;labelBackgroundColor=none;startArrow=none;startFill=0;startSize=5;endArrow=classicThin;endFill=1;endSize=5;jettySize=auto;orthogonalLoop=1;strokeWidth=1;fontFamily=Verdana;fontSize=12" parent="1c1d494c118603dd-4" source="1c1d494c118603dd-9" edge="1">
          <mxGeometry relative="1" as="geometry">
            <mxPoint x="107" y="125" as="targetPoint" />
          </mxGeometry>
        </mxCell>
        <mxCell id="1c1d494c118603dd-9" value="Help Text" style="rounded=0;whiteSpace=wrap;html=1;shadow=0;comic=0;labelBackgroundColor=none;strokeWidth=1;fontFamily=Verdana;fontSize=12;align=center;arcSize=50;" parent="1c1d494c118603dd-4" vertex="1">
          <mxGeometry x="5" y="110" width="70" height="30" as="geometry" />
        </mxCell>
        <mxCell id="60571a20871a0731-5" value="" style="shape=mxgraph.bpmn.shape;html=1;verticalLabelPosition=bottom;labelBackgroundColor=#ffffff;verticalAlign=top;perimeter=ellipsePerimeter;outline=end;symbol=terminate;rounded=0;shadow=0;comic=0;strokeWidth=1;fontFamily=Verdana;fontSize=12;align=center;" parent="1c1d494c118603dd-4" vertex="1">
          <mxGeometry x="140" y="340" width="40" height="40" as="geometry" />
        </mxCell>
        <mxCell id="UkSORgVNk2TvawBsNUPi-17" style="edgeStyle=none;rounded=0;html=1;labelBackgroundColor=none;startArrow=none;startFill=0;startSize=5;endArrow=classicThin;endFill=1;endSize=5;jettySize=auto;orthogonalLoop=1;strokeWidth=1;fontFamily=Verdana;fontSize=12" edge="1" parent="1c1d494c118603dd-4" source="60571a20871a0731-8" target="1c1d494c118603dd-5">
          <mxGeometry relative="1" as="geometry">
            <mxPoint x="137" y="170" as="sourcePoint" />
            <mxPoint x="158" y="230" as="targetPoint" />
          </mxGeometry>
        </mxCell>
        <mxCell id="UkSORgVNk2TvawBsNUPi-32" value="" style="endArrow=classic;html=1;rounded=0;" edge="1" parent="1c1d494c118603dd-4" source="1c1d494c118603dd-5" target="60571a20871a0731-5">
          <mxGeometry width="50" height="50" relative="1" as="geometry">
            <mxPoint x="156" y="470" as="sourcePoint" />
            <mxPoint x="206" y="360" as="targetPoint" />
          </mxGeometry>
        </mxCell>
        <mxCell id="1c1d494c118603dd-3" value="Wiki" style="swimlane;html=1;startSize=20;" parent="1c1d494c118603dd-1" vertex="1">
          <mxGeometry x="500" y="20" width="250" height="970" as="geometry" />
        </mxCell>
        <mxCell id="UkSORgVNk2TvawBsNUPi-27" value="" style="shape=mxgraph.bpmn.shape;html=1;verticalLabelPosition=bottom;labelBackgroundColor=#ffffff;verticalAlign=top;perimeter=ellipsePerimeter;outline=end;symbol=terminate;rounded=0;shadow=0;comic=0;strokeWidth=1;fontFamily=Verdana;fontSize=12;align=center;" vertex="1" parent="1c1d494c118603dd-3">
          <mxGeometry x="85" y="220" width="40" height="40" as="geometry" />
        </mxCell>
        <mxCell id="UkSORgVNk2TvawBsNUPi-16" value="" style="ellipse;whiteSpace=wrap;html=1;rounded=0;shadow=0;comic=0;labelBackgroundColor=none;strokeWidth=1;fillColor=#000000;fontFamily=Verdana;fontSize=12;align=center;" vertex="1" parent="1">
          <mxGeometry x="433" y="69" width="40" height="40" as="geometry" />
        </mxCell>
        <mxCell id="UkSORgVNk2TvawBsNUPi-19" value="" style="endArrow=classic;html=1;rounded=0;" edge="1" parent="1" source="UkSORgVNk2TvawBsNUPi-16" target="60571a20871a0731-8">
          <mxGeometry width="50" height="50" relative="1" as="geometry">
            <mxPoint x="400" y="430" as="sourcePoint" />
            <mxPoint x="350" y="240" as="targetPoint" />
          </mxGeometry>
        </mxCell>
        <mxCell id="UkSORgVNk2TvawBsNUPi-20" value="" style="ellipse;whiteSpace=wrap;html=1;rounded=0;shadow=0;comic=0;labelBackgroundColor=none;strokeWidth=1;fillColor=#000000;fontFamily=Verdana;fontSize=12;align=center;" vertex="1" parent="1">
          <mxGeometry x="629" y="71" width="40" height="40" as="geometry" />
        </mxCell>
        <mxCell id="UkSORgVNk2TvawBsNUPi-26" value="" style="endArrow=classic;html=1;rounded=0;" edge="1" parent="1" source="UkSORgVNk2TvawBsNUPi-20" target="UkSORgVNk2TvawBsNUPi-33">
          <mxGeometry width="50" height="50" relative="1" as="geometry">
            <mxPoint x="610" y="180" as="sourcePoint" />
            <mxPoint x="648.9999999999998" y="132" as="targetPoint" />
          </mxGeometry>
        </mxCell>
        <mxCell id="UkSORgVNk2TvawBsNUPi-29" value="Set Score to zero" style="rounded=1;whiteSpace=wrap;html=1;shadow=0;comic=0;labelBackgroundColor=none;strokeWidth=1;fontFamily=Verdana;fontSize=12;align=center;arcSize=50;" vertex="1" parent="1">
          <mxGeometry x="124" y="320" width="100" height="26" as="geometry" />
        </mxCell>
        <mxCell id="1c1d494c118603dd-34" style="edgeStyle=none;rounded=0;html=1;labelBackgroundColor=none;startArrow=none;startFill=0;startSize=5;endArrow=classicThin;endFill=1;endSize=5;jettySize=auto;orthogonalLoop=1;strokeWidth=1;fontFamily=Verdana;fontSize=12;" parent="1" edge="1">
          <mxGeometry relative="1" as="geometry">
            <mxPoint x="175" y="200" as="sourcePoint" />
            <mxPoint x="175" y="320" as="targetPoint" />
            <Array as="points">
              <mxPoint x="175" y="240" />
            </Array>
          </mxGeometry>
        </mxCell>
        <mxCell id="UkSORgVNk2TvawBsNUPi-30" value="" style="endArrow=classic;html=1;rounded=0;" edge="1" parent="1" target="UkSORgVNk2TvawBsNUPi-9">
          <mxGeometry width="50" height="50" relative="1" as="geometry">
            <mxPoint x="173.25287356321837" y="346" as="sourcePoint" />
            <mxPoint x="169" y="420" as="targetPoint" />
          </mxGeometry>
        </mxCell>
        <mxCell id="UkSORgVNk2TvawBsNUPi-33" value="Open WIKI in new tab" style="rounded=1;whiteSpace=wrap;html=1;shadow=0;comic=0;labelBackgroundColor=none;strokeWidth=1;fontFamily=Verdana;fontSize=12;align=center;arcSize=50;" vertex="1" parent="1">
          <mxGeometry x="599" y="160" width="100" height="30" as="geometry" />
        </mxCell>
        <mxCell id="UkSORgVNk2TvawBsNUPi-35" value="" style="endArrow=classic;html=1;rounded=0;" edge="1" parent="1" source="UkSORgVNk2TvawBsNUPi-33" target="UkSORgVNk2TvawBsNUPi-27">
          <mxGeometry width="50" height="50" relative="1" as="geometry">
            <mxPoint x="610" y="450" as="sourcePoint" />
            <mxPoint x="660" y="400" as="targetPoint" />
          </mxGeometry>
        </mxCell>
      </root>
    </mxGraphModel>
  </diagram>
</mxfile>
